<svg width="445" height="145" viewBox="0 0 445 145" fill="none" xmlns="http://www.w3.org/2000/svg">
<path d="M380.302 77.9521H402.094L444.046 144H422.158L380.302 77.9521ZM415.438 91.3922L422.734 77.9521H443.758L425.518 107.328L415.438 91.3922ZM398.35 114.048L408.334 129.888L400.942 144H379.918L398.35 114.048Z" fill="#3542FF"/>
<path d="M353.895 128.352H373.287V144H353.895V128.352Z" fill="black"/>
<path d="M324.529 120.864C324.529 117.472 324.497 115.232 324.433 114.144C324.305 112.352 324.145 111.168 323.953 110.592C323.697 109.952 323.249 109.568 322.609 109.44C321.969 109.248 320.945 109.152 319.537 109.152H318.577V97.1522C321.073 95.2962 324.337 94.3682 328.369 94.3682C334.129 94.3682 338.001 96.1282 339.985 99.6482C340.881 101.184 341.489 103.072 341.809 105.312C342.129 107.488 342.289 110.176 342.289 113.376V144H324.529V120.864ZM296.785 95.0402H314.545V144H296.785V95.0402Z" fill="black"/>
<path d="M268.309 113.664C268.309 112 268.245 110.816 268.117 110.112C267.989 109.408 267.605 108.896 266.965 108.576C266.389 108.256 265.301 108.032 263.701 107.904C262.741 107.84 260.661 107.808 257.461 107.808C254.389 107.808 251.541 107.936 248.917 108.192L243.829 108.48V96.0005C249.845 94.8485 256.341 94.2725 263.317 94.2725C268.693 94.2725 272.885 94.6565 275.893 95.4245C278.965 96.1925 281.269 97.4085 282.805 99.0725C284.149 100.608 285.013 102.56 285.397 104.928C285.845 107.296 286.069 110.592 286.069 114.816V144H268.309V113.664ZM254.101 144.672C249.685 144.672 246.421 143.456 244.309 141.024C242.197 138.528 241.141 134.784 241.141 129.792C241.141 126.72 241.365 124.256 241.813 122.4C242.261 120.48 243.029 118.976 244.117 117.888C245.205 116.736 246.709 115.936 248.629 115.488C250.549 114.976 253.077 114.72 256.213 114.72L264.277 114.912V123.456H263.317C261.845 123.456 260.885 123.488 260.437 123.552C259.157 123.616 258.485 124.224 258.421 125.376C258.357 125.76 258.325 126.56 258.325 127.776C258.325 128.736 258.357 129.472 258.421 129.984C258.549 130.496 258.741 130.912 258.997 131.232C259.317 131.68 259.797 131.936 260.437 132C261.333 132.128 262.293 132.192 263.317 132.192H264.277V141.984C262.869 143.072 261.365 143.776 259.765 144.096C258.229 144.48 256.341 144.672 254.101 144.672Z" fill="black"/>
<path d="M182.863 77.9521H236.911V93.3122H182.863V77.9521ZM200.239 97.1521H219.439V144H200.239V97.1521Z" fill="black"/>
<path d="M147 117.845V144.845H65V117.845H147ZM71.6324 137.601H140.368V125.089H71.6324V137.601Z" fill="black"/>
<path d="M147 87.8447V114.845H101V87.8447H147ZM107.658 107.601H140.342V95.0886H107.658V107.601Z" fill="black"/>
<path d="M52.0186 13.0049H109.258L122.262 29.2598V35.7627H102.756V42.2646H112.509V68.2734H86.5V42.2646H96.2529V35.7627H52.0186V143.896H26.0088V35.7627H19.5068V45.5156H0V13.0049H26.0088V0H52.0186V13.0049ZM92.3115 48V63H107.312V48H92.3115Z" fill="#1F1F1F"/>
</svg>
